<mxfile host="app.diagrams.net" modified="2023-12-19T13:41:59.527Z" agent="Mozilla/5.0 (Windows NT 10.0; Win64; x64) AppleWebKit/537.36 (KHTML, like Gecko) Chrome/120.0.0.0 Safari/537.36" etag="DNpgUX6cxvjlK6ywVTu-" version="22.1.11" type="device">
  <diagram name="Page-1" id="daH5OOB6rztFQY72F1LG">
    <mxGraphModel dx="548" dy="308" grid="1" gridSize="10" guides="1" tooltips="1" connect="1" arrows="1" fold="1" page="1" pageScale="1" pageWidth="850" pageHeight="1400" math="0" shadow="0">
      <root>
        <mxCell id="0" />
        <mxCell id="1" parent="0" />
        <mxCell id="A-se4o5WBmEi9xN2Zuy--172" value="Verilmiş M ədədindən verilmiş N ədədinədək olan ədədlərin cəmini tapan alqoritm" style="whiteSpace=wrap;html=1;aspect=fixed;" vertex="1" parent="1">
          <mxGeometry width="120" height="120" as="geometry" />
        </mxCell>
        <mxCell id="A-se4o5WBmEi9xN2Zuy--175" value="" style="edgeStyle=orthogonalEdgeStyle;rounded=0;orthogonalLoop=1;jettySize=auto;html=1;" edge="1" parent="1" source="A-se4o5WBmEi9xN2Zuy--173">
          <mxGeometry relative="1" as="geometry">
            <mxPoint x="280" y="200.00000000000006" as="targetPoint" />
          </mxGeometry>
        </mxCell>
        <mxCell id="A-se4o5WBmEi9xN2Zuy--173" value="Start" style="ellipse;whiteSpace=wrap;html=1;" vertex="1" parent="1">
          <mxGeometry x="220" y="40" width="120" height="80" as="geometry" />
        </mxCell>
        <mxCell id="A-se4o5WBmEi9xN2Zuy--178" value="" style="edgeStyle=orthogonalEdgeStyle;rounded=0;orthogonalLoop=1;jettySize=auto;html=1;" edge="1" parent="1" source="A-se4o5WBmEi9xN2Zuy--176" target="A-se4o5WBmEi9xN2Zuy--177">
          <mxGeometry relative="1" as="geometry" />
        </mxCell>
        <mxCell id="A-se4o5WBmEi9xN2Zuy--176" value="M,N" style="shape=parallelogram;perimeter=parallelogramPerimeter;whiteSpace=wrap;html=1;fixedSize=1;" vertex="1" parent="1">
          <mxGeometry x="220" y="200" width="120" height="60" as="geometry" />
        </mxCell>
        <mxCell id="A-se4o5WBmEi9xN2Zuy--180" value="True" style="edgeStyle=orthogonalEdgeStyle;rounded=0;orthogonalLoop=1;jettySize=auto;html=1;" edge="1" parent="1" source="A-se4o5WBmEi9xN2Zuy--177" target="A-se4o5WBmEi9xN2Zuy--179">
          <mxGeometry relative="1" as="geometry" />
        </mxCell>
        <mxCell id="A-se4o5WBmEi9xN2Zuy--183" value="False" style="edgeStyle=orthogonalEdgeStyle;rounded=0;orthogonalLoop=1;jettySize=auto;html=1;" edge="1" parent="1" source="A-se4o5WBmEi9xN2Zuy--177">
          <mxGeometry relative="1" as="geometry">
            <mxPoint x="140" y="370" as="targetPoint" />
          </mxGeometry>
        </mxCell>
        <mxCell id="A-se4o5WBmEi9xN2Zuy--177" value="int i = M ; i &amp;lt; N; i++" style="shape=hexagon;perimeter=hexagonPerimeter2;whiteSpace=wrap;html=1;fixedSize=1;" vertex="1" parent="1">
          <mxGeometry x="220" y="330" width="120" height="80" as="geometry" />
        </mxCell>
        <mxCell id="A-se4o5WBmEi9xN2Zuy--181" style="edgeStyle=orthogonalEdgeStyle;rounded=0;orthogonalLoop=1;jettySize=auto;html=1;entryX=1;entryY=0.5;entryDx=0;entryDy=0;" edge="1" parent="1" source="A-se4o5WBmEi9xN2Zuy--179" target="A-se4o5WBmEi9xN2Zuy--177">
          <mxGeometry relative="1" as="geometry">
            <Array as="points">
              <mxPoint x="400" y="520" />
              <mxPoint x="400" y="370" />
            </Array>
          </mxGeometry>
        </mxCell>
        <mxCell id="A-se4o5WBmEi9xN2Zuy--179" value="sum += i" style="whiteSpace=wrap;html=1;" vertex="1" parent="1">
          <mxGeometry x="220" y="500" width="120" height="60" as="geometry" />
        </mxCell>
        <mxCell id="A-se4o5WBmEi9xN2Zuy--184" value="sum" style="shape=document;whiteSpace=wrap;html=1;boundedLbl=1;" vertex="1" parent="1">
          <mxGeometry x="20" y="340" width="120" height="80" as="geometry" />
        </mxCell>
        <mxCell id="A-se4o5WBmEi9xN2Zuy--185" value="&amp;nbsp;1-dən M-ədək ədədlər içərisində 15-ə bölünən ədədlərin sayını tapan alqoritm" style="whiteSpace=wrap;html=1;aspect=fixed;" vertex="1" parent="1">
          <mxGeometry x="520" width="120" height="120" as="geometry" />
        </mxCell>
        <mxCell id="A-se4o5WBmEi9xN2Zuy--188" value="" style="edgeStyle=orthogonalEdgeStyle;rounded=0;orthogonalLoop=1;jettySize=auto;html=1;" edge="1" parent="1" source="A-se4o5WBmEi9xN2Zuy--186" target="A-se4o5WBmEi9xN2Zuy--187">
          <mxGeometry relative="1" as="geometry" />
        </mxCell>
        <mxCell id="A-se4o5WBmEi9xN2Zuy--186" value="Start" style="ellipse;whiteSpace=wrap;html=1;" vertex="1" parent="1">
          <mxGeometry x="700" width="120" height="80" as="geometry" />
        </mxCell>
        <mxCell id="A-se4o5WBmEi9xN2Zuy--190" value="" style="edgeStyle=orthogonalEdgeStyle;rounded=0;orthogonalLoop=1;jettySize=auto;html=1;" edge="1" parent="1" source="A-se4o5WBmEi9xN2Zuy--193" target="A-se4o5WBmEi9xN2Zuy--189">
          <mxGeometry relative="1" as="geometry" />
        </mxCell>
        <mxCell id="A-se4o5WBmEi9xN2Zuy--187" value="M" style="shape=parallelogram;perimeter=parallelogramPerimeter;whiteSpace=wrap;html=1;fixedSize=1;" vertex="1" parent="1">
          <mxGeometry x="700" y="170" width="120" height="60" as="geometry" />
        </mxCell>
        <mxCell id="A-se4o5WBmEi9xN2Zuy--192" value="True" style="edgeStyle=orthogonalEdgeStyle;rounded=0;orthogonalLoop=1;jettySize=auto;html=1;" edge="1" parent="1" source="A-se4o5WBmEi9xN2Zuy--189">
          <mxGeometry relative="1" as="geometry">
            <mxPoint x="760" y="660" as="targetPoint" />
          </mxGeometry>
        </mxCell>
        <mxCell id="A-se4o5WBmEi9xN2Zuy--201" value="False" style="edgeStyle=orthogonalEdgeStyle;rounded=0;orthogonalLoop=1;jettySize=auto;html=1;" edge="1" parent="1" source="A-se4o5WBmEi9xN2Zuy--189">
          <mxGeometry relative="1" as="geometry">
            <mxPoint x="590" y="520" as="targetPoint" />
          </mxGeometry>
        </mxCell>
        <mxCell id="A-se4o5WBmEi9xN2Zuy--189" value="int i = 1; i&amp;lt;M;i++" style="shape=hexagon;perimeter=hexagonPerimeter2;whiteSpace=wrap;html=1;fixedSize=1;" vertex="1" parent="1">
          <mxGeometry x="700" y="480" width="120" height="80" as="geometry" />
        </mxCell>
        <mxCell id="A-se4o5WBmEi9xN2Zuy--194" value="" style="edgeStyle=orthogonalEdgeStyle;rounded=0;orthogonalLoop=1;jettySize=auto;html=1;" edge="1" parent="1" source="A-se4o5WBmEi9xN2Zuy--187" target="A-se4o5WBmEi9xN2Zuy--193">
          <mxGeometry relative="1" as="geometry">
            <mxPoint x="760" y="230" as="sourcePoint" />
            <mxPoint x="760" y="480" as="targetPoint" />
          </mxGeometry>
        </mxCell>
        <mxCell id="A-se4o5WBmEi9xN2Zuy--193" value="count = 0" style="rounded=0;whiteSpace=wrap;html=1;" vertex="1" parent="1">
          <mxGeometry x="700" y="340" width="120" height="60" as="geometry" />
        </mxCell>
        <mxCell id="A-se4o5WBmEi9xN2Zuy--196" style="edgeStyle=orthogonalEdgeStyle;rounded=0;orthogonalLoop=1;jettySize=auto;html=1;" edge="1" parent="1" source="A-se4o5WBmEi9xN2Zuy--195" target="A-se4o5WBmEi9xN2Zuy--197">
          <mxGeometry relative="1" as="geometry">
            <mxPoint x="880" y="700" as="targetPoint" />
          </mxGeometry>
        </mxCell>
        <mxCell id="A-se4o5WBmEi9xN2Zuy--198" value="True" style="edgeLabel;html=1;align=center;verticalAlign=middle;resizable=0;points=[];" vertex="1" connectable="0" parent="A-se4o5WBmEi9xN2Zuy--196">
          <mxGeometry x="0.1621" y="-3" relative="1" as="geometry">
            <mxPoint as="offset" />
          </mxGeometry>
        </mxCell>
        <mxCell id="A-se4o5WBmEi9xN2Zuy--200" value="False" style="edgeStyle=orthogonalEdgeStyle;rounded=0;orthogonalLoop=1;jettySize=auto;html=1;entryX=0;entryY=0.5;entryDx=0;entryDy=0;" edge="1" parent="1" source="A-se4o5WBmEi9xN2Zuy--195" target="A-se4o5WBmEi9xN2Zuy--189">
          <mxGeometry relative="1" as="geometry">
            <Array as="points">
              <mxPoint x="680" y="700" />
              <mxPoint x="680" y="560" />
              <mxPoint x="700" y="560" />
            </Array>
          </mxGeometry>
        </mxCell>
        <mxCell id="A-se4o5WBmEi9xN2Zuy--195" value="i%15 == 0" style="rhombus;whiteSpace=wrap;html=1;" vertex="1" parent="1">
          <mxGeometry x="720" y="660" width="80" height="80" as="geometry" />
        </mxCell>
        <mxCell id="A-se4o5WBmEi9xN2Zuy--202" style="edgeStyle=orthogonalEdgeStyle;rounded=0;orthogonalLoop=1;jettySize=auto;html=1;entryX=1;entryY=0.5;entryDx=0;entryDy=0;" edge="1" parent="1" source="A-se4o5WBmEi9xN2Zuy--197" target="A-se4o5WBmEi9xN2Zuy--189">
          <mxGeometry relative="1" as="geometry">
            <Array as="points">
              <mxPoint x="940" y="520" />
            </Array>
          </mxGeometry>
        </mxCell>
        <mxCell id="A-se4o5WBmEi9xN2Zuy--197" value="count++" style="rounded=0;whiteSpace=wrap;html=1;" vertex="1" parent="1">
          <mxGeometry x="880" y="670" width="120" height="60" as="geometry" />
        </mxCell>
        <mxCell id="A-se4o5WBmEi9xN2Zuy--204" style="edgeStyle=orthogonalEdgeStyle;rounded=0;orthogonalLoop=1;jettySize=auto;html=1;" edge="1" parent="1" source="A-se4o5WBmEi9xN2Zuy--203">
          <mxGeometry relative="1" as="geometry">
            <mxPoint x="530" y="640" as="targetPoint" />
          </mxGeometry>
        </mxCell>
        <mxCell id="A-se4o5WBmEi9xN2Zuy--203" value="count" style="shape=document;whiteSpace=wrap;html=1;boundedLbl=1;" vertex="1" parent="1">
          <mxGeometry x="470" y="480" width="120" height="80" as="geometry" />
        </mxCell>
        <mxCell id="A-se4o5WBmEi9xN2Zuy--205" value="End" style="ellipse;whiteSpace=wrap;html=1;" vertex="1" parent="1">
          <mxGeometry x="470" y="640" width="120" height="80" as="geometry" />
        </mxCell>
        <mxCell id="A-se4o5WBmEi9xN2Zuy--206" value="1-dən M-ədək ədədlər içərisində 21-ə bölünən ədədlərin ədədi ortasını tapan alqoritm" style="whiteSpace=wrap;html=1;aspect=fixed;" vertex="1" parent="1">
          <mxGeometry x="1280" width="120" height="120" as="geometry" />
        </mxCell>
        <mxCell id="A-se4o5WBmEi9xN2Zuy--210" value="" style="edgeStyle=orthogonalEdgeStyle;rounded=0;orthogonalLoop=1;jettySize=auto;html=1;" edge="1" parent="1" source="A-se4o5WBmEi9xN2Zuy--208" target="A-se4o5WBmEi9xN2Zuy--209">
          <mxGeometry relative="1" as="geometry" />
        </mxCell>
        <mxCell id="A-se4o5WBmEi9xN2Zuy--208" value="Start" style="ellipse;whiteSpace=wrap;html=1;" vertex="1" parent="1">
          <mxGeometry x="1500" width="120" height="80" as="geometry" />
        </mxCell>
        <mxCell id="A-se4o5WBmEi9xN2Zuy--212" value="" style="edgeStyle=orthogonalEdgeStyle;rounded=0;orthogonalLoop=1;jettySize=auto;html=1;" edge="1" parent="1" source="A-se4o5WBmEi9xN2Zuy--209" target="A-se4o5WBmEi9xN2Zuy--211">
          <mxGeometry relative="1" as="geometry" />
        </mxCell>
        <mxCell id="A-se4o5WBmEi9xN2Zuy--209" value="M" style="shape=parallelogram;perimeter=parallelogramPerimeter;whiteSpace=wrap;html=1;fixedSize=1;" vertex="1" parent="1">
          <mxGeometry x="1500" y="170" width="120" height="60" as="geometry" />
        </mxCell>
        <mxCell id="A-se4o5WBmEi9xN2Zuy--214" value="True" style="edgeStyle=orthogonalEdgeStyle;rounded=0;orthogonalLoop=1;jettySize=auto;html=1;" edge="1" parent="1" source="A-se4o5WBmEi9xN2Zuy--211" target="A-se4o5WBmEi9xN2Zuy--213">
          <mxGeometry relative="1" as="geometry" />
        </mxCell>
        <mxCell id="A-se4o5WBmEi9xN2Zuy--221" value="False" style="edgeStyle=orthogonalEdgeStyle;rounded=0;orthogonalLoop=1;jettySize=auto;html=1;" edge="1" parent="1" source="A-se4o5WBmEi9xN2Zuy--211">
          <mxGeometry relative="1" as="geometry">
            <mxPoint x="1360" y="400" as="targetPoint" />
          </mxGeometry>
        </mxCell>
        <mxCell id="A-se4o5WBmEi9xN2Zuy--211" value="int i = 1; i&amp;lt;M;i++" style="shape=hexagon;perimeter=hexagonPerimeter2;whiteSpace=wrap;html=1;fixedSize=1;" vertex="1" parent="1">
          <mxGeometry x="1500" y="360" width="120" height="80" as="geometry" />
        </mxCell>
        <mxCell id="A-se4o5WBmEi9xN2Zuy--215" style="edgeStyle=orthogonalEdgeStyle;rounded=0;orthogonalLoop=1;jettySize=auto;html=1;entryX=0;entryY=0.5;entryDx=0;entryDy=0;" edge="1" parent="1" source="A-se4o5WBmEi9xN2Zuy--213" target="A-se4o5WBmEi9xN2Zuy--211">
          <mxGeometry relative="1" as="geometry">
            <Array as="points">
              <mxPoint x="1500" y="570" />
            </Array>
          </mxGeometry>
        </mxCell>
        <mxCell id="A-se4o5WBmEi9xN2Zuy--216" value="False" style="edgeLabel;html=1;align=center;verticalAlign=middle;resizable=0;points=[];" vertex="1" connectable="0" parent="A-se4o5WBmEi9xN2Zuy--215">
          <mxGeometry x="-0.2313" y="-1" relative="1" as="geometry">
            <mxPoint as="offset" />
          </mxGeometry>
        </mxCell>
        <mxCell id="A-se4o5WBmEi9xN2Zuy--218" value="True" style="edgeStyle=orthogonalEdgeStyle;rounded=0;orthogonalLoop=1;jettySize=auto;html=1;" edge="1" parent="1" source="A-se4o5WBmEi9xN2Zuy--213" target="A-se4o5WBmEi9xN2Zuy--217">
          <mxGeometry relative="1" as="geometry" />
        </mxCell>
        <mxCell id="A-se4o5WBmEi9xN2Zuy--213" value="i%21 == 0" style="rhombus;whiteSpace=wrap;html=1;" vertex="1" parent="1">
          <mxGeometry x="1520" y="530" width="80" height="80" as="geometry" />
        </mxCell>
        <mxCell id="A-se4o5WBmEi9xN2Zuy--220" style="edgeStyle=orthogonalEdgeStyle;rounded=0;orthogonalLoop=1;jettySize=auto;html=1;entryX=1;entryY=0.5;entryDx=0;entryDy=0;" edge="1" parent="1" source="A-se4o5WBmEi9xN2Zuy--217" target="A-se4o5WBmEi9xN2Zuy--211">
          <mxGeometry relative="1" as="geometry">
            <Array as="points">
              <mxPoint x="1720" y="400" />
            </Array>
          </mxGeometry>
        </mxCell>
        <mxCell id="A-se4o5WBmEi9xN2Zuy--217" value="count++&lt;br&gt;x += i" style="whiteSpace=wrap;html=1;" vertex="1" parent="1">
          <mxGeometry x="1660" y="540" width="120" height="60" as="geometry" />
        </mxCell>
        <mxCell id="A-se4o5WBmEi9xN2Zuy--219" value="count = 0&lt;br&gt;x = 0" style="rounded=0;whiteSpace=wrap;html=1;" vertex="1" parent="1">
          <mxGeometry x="1500" y="260" width="120" height="60" as="geometry" />
        </mxCell>
        <mxCell id="A-se4o5WBmEi9xN2Zuy--224" value="" style="edgeStyle=orthogonalEdgeStyle;rounded=0;orthogonalLoop=1;jettySize=auto;html=1;" edge="1" parent="1" source="A-se4o5WBmEi9xN2Zuy--222" target="A-se4o5WBmEi9xN2Zuy--223">
          <mxGeometry relative="1" as="geometry" />
        </mxCell>
        <mxCell id="A-se4o5WBmEi9xN2Zuy--222" value="result = x/count" style="rounded=0;whiteSpace=wrap;html=1;" vertex="1" parent="1">
          <mxGeometry x="1240" y="370" width="120" height="60" as="geometry" />
        </mxCell>
        <mxCell id="A-se4o5WBmEi9xN2Zuy--225" style="edgeStyle=orthogonalEdgeStyle;rounded=0;orthogonalLoop=1;jettySize=auto;html=1;" edge="1" parent="1" source="A-se4o5WBmEi9xN2Zuy--223">
          <mxGeometry relative="1" as="geometry">
            <mxPoint x="1300" y="640" as="targetPoint" />
          </mxGeometry>
        </mxCell>
        <mxCell id="A-se4o5WBmEi9xN2Zuy--223" value="result" style="shape=document;whiteSpace=wrap;html=1;boundedLbl=1;rounded=0;" vertex="1" parent="1">
          <mxGeometry x="1240" y="500" width="120" height="80" as="geometry" />
        </mxCell>
        <mxCell id="A-se4o5WBmEi9xN2Zuy--226" value="End" style="ellipse;whiteSpace=wrap;html=1;" vertex="1" parent="1">
          <mxGeometry x="1240" y="640" width="120" height="80" as="geometry" />
        </mxCell>
        <mxCell id="A-se4o5WBmEi9xN2Zuy--227" value="Verilmiş N ədədinin rəqəmlərinin cəmini tapan alqoritm. (ədəd 3 və ya daha cox rəqəmdən ibarət ola bilər)" style="whiteSpace=wrap;html=1;aspect=fixed;" vertex="1" parent="1">
          <mxGeometry x="1920" width="120" height="120" as="geometry" />
        </mxCell>
        <mxCell id="A-se4o5WBmEi9xN2Zuy--230" value="" style="edgeStyle=orthogonalEdgeStyle;rounded=0;orthogonalLoop=1;jettySize=auto;html=1;" edge="1" parent="1" source="A-se4o5WBmEi9xN2Zuy--228" target="A-se4o5WBmEi9xN2Zuy--229">
          <mxGeometry relative="1" as="geometry" />
        </mxCell>
        <mxCell id="A-se4o5WBmEi9xN2Zuy--228" value="Start" style="ellipse;whiteSpace=wrap;html=1;" vertex="1" parent="1">
          <mxGeometry x="2180" width="120" height="80" as="geometry" />
        </mxCell>
        <mxCell id="A-se4o5WBmEi9xN2Zuy--232" value="" style="edgeStyle=orthogonalEdgeStyle;rounded=0;orthogonalLoop=1;jettySize=auto;html=1;" edge="1" parent="1" source="A-se4o5WBmEi9xN2Zuy--229" target="A-se4o5WBmEi9xN2Zuy--231">
          <mxGeometry relative="1" as="geometry" />
        </mxCell>
        <mxCell id="A-se4o5WBmEi9xN2Zuy--229" value="N" style="shape=parallelogram;perimeter=parallelogramPerimeter;whiteSpace=wrap;html=1;fixedSize=1;" vertex="1" parent="1">
          <mxGeometry x="2180" y="170" width="120" height="60" as="geometry" />
        </mxCell>
        <mxCell id="A-se4o5WBmEi9xN2Zuy--234" value="" style="edgeStyle=orthogonalEdgeStyle;rounded=0;orthogonalLoop=1;jettySize=auto;html=1;" edge="1" parent="1" source="A-se4o5WBmEi9xN2Zuy--231" target="A-se4o5WBmEi9xN2Zuy--233">
          <mxGeometry relative="1" as="geometry" />
        </mxCell>
        <mxCell id="A-se4o5WBmEi9xN2Zuy--231" value="sum = 0" style="whiteSpace=wrap;html=1;" vertex="1" parent="1">
          <mxGeometry x="2180" y="310" width="120" height="60" as="geometry" />
        </mxCell>
        <mxCell id="A-se4o5WBmEi9xN2Zuy--236" value="True" style="edgeStyle=orthogonalEdgeStyle;rounded=0;orthogonalLoop=1;jettySize=auto;html=1;" edge="1" parent="1" source="A-se4o5WBmEi9xN2Zuy--233" target="A-se4o5WBmEi9xN2Zuy--235">
          <mxGeometry relative="1" as="geometry" />
        </mxCell>
        <mxCell id="A-se4o5WBmEi9xN2Zuy--239" value="False" style="edgeStyle=orthogonalEdgeStyle;rounded=0;orthogonalLoop=1;jettySize=auto;html=1;" edge="1" parent="1" source="A-se4o5WBmEi9xN2Zuy--233">
          <mxGeometry relative="1" as="geometry">
            <mxPoint x="2100" y="478.9999999999999" as="targetPoint" />
          </mxGeometry>
        </mxCell>
        <mxCell id="A-se4o5WBmEi9xN2Zuy--233" value="while(N&amp;gt;0)" style="shape=hexagon;perimeter=hexagonPerimeter2;whiteSpace=wrap;html=1;fixedSize=1;" vertex="1" parent="1">
          <mxGeometry x="2180" y="439" width="120" height="80" as="geometry" />
        </mxCell>
        <mxCell id="A-se4o5WBmEi9xN2Zuy--237" style="edgeStyle=orthogonalEdgeStyle;rounded=0;orthogonalLoop=1;jettySize=auto;html=1;entryX=1;entryY=0.5;entryDx=0;entryDy=0;" edge="1" parent="1" source="A-se4o5WBmEi9xN2Zuy--235" target="A-se4o5WBmEi9xN2Zuy--233">
          <mxGeometry relative="1" as="geometry">
            <Array as="points">
              <mxPoint x="2360" y="479" />
            </Array>
          </mxGeometry>
        </mxCell>
        <mxCell id="A-se4o5WBmEi9xN2Zuy--235" value="digit = N%10&lt;br&gt;sum += digit&lt;br&gt;N =(N-digit)/10" style="rhombus;whiteSpace=wrap;html=1;" vertex="1" parent="1">
          <mxGeometry x="2120" y="599" width="240" height="80" as="geometry" />
        </mxCell>
        <mxCell id="A-se4o5WBmEi9xN2Zuy--241" style="edgeStyle=orthogonalEdgeStyle;rounded=0;orthogonalLoop=1;jettySize=auto;html=1;" edge="1" parent="1" source="A-se4o5WBmEi9xN2Zuy--240">
          <mxGeometry relative="1" as="geometry">
            <mxPoint x="2040" y="600" as="targetPoint" />
          </mxGeometry>
        </mxCell>
        <mxCell id="A-se4o5WBmEi9xN2Zuy--240" value="sum" style="shape=document;whiteSpace=wrap;html=1;boundedLbl=1;" vertex="1" parent="1">
          <mxGeometry x="1980" y="450" width="120" height="80" as="geometry" />
        </mxCell>
        <mxCell id="A-se4o5WBmEi9xN2Zuy--242" value="End" style="ellipse;whiteSpace=wrap;html=1;" vertex="1" parent="1">
          <mxGeometry x="1980" y="600" width="120" height="80" as="geometry" />
        </mxCell>
      </root>
    </mxGraphModel>
  </diagram>
</mxfile>
